# 3ds Max Wavefront OBJ Exporter v0.99 - (c)2007 guruware
# File Created: 22.04.2024 15:45:53

mtllib table.mtl

#
# object Platte
#

v  3.891000 2.918800 0.449000
v  3.891000 3.068400 0.449000
v  -0.299300 3.068400 0.449000
v  -0.299300 2.918800 0.449000
v  -0.299300 2.918800 -6.135800
v  -0.299300 3.068400 -6.135800
v  3.891000 3.068400 -6.135800
v  3.891000 2.918800 -6.135800
# 8 vertices

vn 0.577300 -0.577400 0.577400
vn 0.577400 0.577400 0.577400
vn -0.577400 0.577400 0.577400
vn -0.577400 -0.577300 0.577300
vn -0.577300 -0.577400 -0.577400
vn -0.577400 0.577400 -0.577400
vn 0.577400 0.577400 -0.577400
vn 0.577400 -0.577300 -0.577300
# 8 vertex normals

vt 1.000000 0.000000 0.000002
vt 1.000000 0.000000 1.000002
vt 0.000000 0.000000 1.000002
vt 0.000000 0.000000 0.000002
vt 0.000000 1.000000 0.000002
vt 0.000000 1.000000 1.000002
vt 1.000000 1.000000 1.000002
vt 1.000000 1.000000 0.000002
# 8 texture coords

o Platte
g Platte
usemtl Mat
s 1
f -8/-8/-8 -7/-7/-7 -6/-6/-6 
f -8/-8/-8 -6/-6/-6 -5/-5/-5 
f -4/-4/-4 -3/-3/-3 -2/-2/-2 
f -4/-4/-4 -2/-2/-2 -1/-1/-1 
f -7/-7/-7 -2/-2/-2 -3/-3/-3 
f -7/-7/-7 -3/-3/-3 -6/-6/-6 
f -1/-1/-1 -8/-8/-8 -5/-5/-5 
f -1/-1/-1 -5/-5/-5 -4/-4/-4 
f -1/-1/-1 -2/-2/-2 -7/-7/-7 
f -1/-1/-1 -7/-7/-7 -8/-8/-8 
f -5/-5/-5 -6/-6/-6 -3/-3/-3 
f -5/-5/-5 -3/-3/-3 -4/-4/-4 
# 12 faces

#
# object Bein
#

v  0.299300 0.000000 -0.000000
v  0.299300 2.993100 -0.000000
v  0.000000 2.993100 -0.000000
v  0.000000 0.000000 -0.000000
v  0.299300 0.000000 -0.299300
v  0.299300 2.993100 -0.299300
v  0.000000 0.000000 -0.299300
v  0.000000 2.993100 -0.299300
# 8 vertices

vn 0.577400 -0.577400 0.577400
vn 0.577400 0.577400 0.577400
vn -0.577400 0.577400 0.577400
vn -0.577400 -0.577400 0.577400
vn 0.577400 -0.577400 -0.577400
vn 0.577400 0.577400 -0.577400
vn -0.577400 -0.577400 -0.577400
vn -0.577400 0.577400 -0.577400
# 8 vertex normals

vt 0.083331 -0.000000 0.000000
vt 0.083331 1.000000 0.000000
vt 0.000000 1.000000 0.000000
vt 0.000000 -0.000000 0.000000
vt 0.052631 -0.000000 0.083331
vt 0.052631 1.000000 0.083331
vt 0.000000 1.000000 0.083331
vt 0.000000 -0.000000 0.083331
vt 1.000000 -0.000000 0.052631
vt 1.000000 1.000000 0.052631
vt 0.916669 1.000000 0.052631
vt 0.916669 -0.000000 0.052631
vt 1.000000 -0.000000 0.000000
vt 1.000000 1.000000 0.000000
vt 0.947369 1.000000 0.000000
vt 0.947369 -0.000000 0.000000
vt 0.083331 0.000000 1.000000
vt 0.083331 0.052631 1.000000
vt 0.000000 0.052631 1.000000
vt 0.000000 0.000000 1.000000
vt 0.916669 0.052631 -0.000000
vt 0.916669 0.000000 -0.000000
vt 1.000000 0.000000 -0.000000
vt 1.000000 0.052631 -0.000000
# 24 texture coords

o Bein
g Bein
usemtl Mat
s 1
f -8/-24/-8 -7/-23/-7 -6/-22/-6 
f -8/-24/-8 -6/-22/-6 -5/-21/-5 
f -4/-20/-4 -3/-19/-3 -7/-18/-7 
f -4/-20/-4 -7/-18/-7 -8/-17/-8 
f -2/-16/-2 -1/-15/-1 -3/-14/-3 
f -2/-16/-2 -3/-14/-3 -4/-13/-4 
f -5/-12/-5 -6/-11/-6 -1/-10/-1 
f -5/-12/-5 -1/-10/-1 -2/-9/-2 
f -7/-8/-7 -3/-7/-3 -1/-6/-1 
f -7/-8/-7 -1/-6/-1 -6/-5/-6 
f -4/-4/-4 -8/-3/-8 -5/-2/-5 
f -4/-4/-4 -5/-2/-5 -2/-1/-2 
# 12 faces

#
# object Bein_1
#

v  3.591700 0.000000 -0.000000
v  3.591700 2.993100 -0.000000
v  3.292400 2.993100 -0.000000
v  3.292400 0.000000 -0.000000
v  3.591700 0.000000 -0.299300
v  3.591700 2.993100 -0.299300
v  3.292400 0.000000 -0.299300
v  3.292400 2.993100 -0.299300
# 8 vertices

vn 0.577400 -0.577400 0.577400
vn 0.577400 0.577400 0.577400
vn -0.577400 0.577400 0.577400
vn -0.577400 -0.577400 0.577400
vn 0.577400 -0.577400 -0.577400
vn 0.577400 0.577400 -0.577400
vn -0.577400 -0.577400 -0.577400
vn -0.577400 0.577400 -0.577400
# 8 vertex normals

vt 1.000000 -0.000000 0.000000
vt 1.000000 1.000000 0.000000
vt 0.916669 1.000000 0.000000
vt 0.916669 -0.000000 0.000000
vt 0.052631 -0.000000 1.000000
vt 0.052631 1.000000 1.000000
vt 0.000000 1.000000 1.000000
vt 0.000000 -0.000000 1.000000
vt 0.083331 -0.000000 0.052631
vt 0.083331 1.000000 0.052631
vt 0.000000 1.000000 0.052631
vt 0.000000 -0.000000 0.052631
vt 1.000000 -0.000000 0.916669
vt 1.000000 1.000000 0.916669
vt 0.947369 1.000000 0.916669
vt 0.947369 -0.000000 0.916669
vt 1.000000 0.000000 1.000000
vt 1.000000 0.052631 1.000000
vt 0.916669 0.052631 1.000000
vt 0.916669 0.000000 1.000000
vt 0.000000 0.052631 -0.000000
vt 0.000000 0.000000 -0.000000
vt 0.083331 0.000000 -0.000000
vt 0.083331 0.052631 -0.000000
# 24 texture coords

o Bein_1
g Bein_1
usemtl Mat
s 1
f -8/-24/-8 -7/-23/-7 -6/-22/-6 
f -8/-24/-8 -6/-22/-6 -5/-21/-5 
f -4/-20/-4 -3/-19/-3 -7/-18/-7 
f -4/-20/-4 -7/-18/-7 -8/-17/-8 
f -2/-16/-2 -1/-15/-1 -3/-14/-3 
f -2/-16/-2 -3/-14/-3 -4/-13/-4 
f -5/-12/-5 -6/-11/-6 -1/-10/-1 
f -5/-12/-5 -1/-10/-1 -2/-9/-2 
f -7/-8/-7 -3/-7/-3 -1/-6/-1 
f -7/-8/-7 -1/-6/-1 -6/-5/-6 
f -4/-4/-4 -8/-3/-8 -5/-2/-5 
f -4/-4/-4 -5/-2/-5 -2/-1/-2 
# 12 faces

#
# object Bein_2
#

v  0.299300 0.000000 -5.387500
v  0.299300 2.993100 -5.387500
v  0.000000 2.993100 -5.387500
v  0.000000 0.000000 -5.387500
v  0.299300 0.000000 -5.686800
v  0.299300 2.993100 -5.686800
v  0.000000 0.000000 -5.686800
v  0.000000 2.993100 -5.686800
# 8 vertices

vn 0.577400 -0.577400 0.577400
vn 0.577400 0.577400 0.577400
vn -0.577400 0.577400 0.577400
vn -0.577400 -0.577400 0.577400
vn 0.577400 -0.577400 -0.577400
vn 0.577400 0.577400 -0.577400
vn -0.577400 -0.577400 -0.577400
vn -0.577400 0.577400 -0.577400
# 8 vertex normals

vt 0.083331 -0.000000 0.947369
vt 0.083331 1.000000 0.947369
vt 0.000000 1.000000 0.947369
vt 0.000000 -0.000000 0.947369
vt 1.000000 -0.000000 0.083331
vt 1.000000 1.000000 0.083331
vt 0.947369 1.000000 0.083331
vt 0.947369 -0.000000 0.083331
vt 1.000000 -0.000000 1.000000
vt 1.000000 1.000000 1.000000
vt 0.916669 1.000000 1.000000
vt 0.916669 -0.000000 1.000000
vt 0.052631 -0.000000 0.000000
vt 0.052631 1.000000 0.000000
vt 0.000000 1.000000 0.000000
vt 0.000000 -0.000000 0.000000
vt 0.083331 0.947369 1.000000
vt 0.083331 1.000000 1.000000
vt 0.000000 1.000000 1.000000
vt 0.000000 0.947369 1.000000
vt 0.916669 1.000000 -0.000000
vt 0.916669 0.947369 -0.000000
vt 1.000000 0.947369 -0.000000
vt 1.000000 1.000000 -0.000000
# 24 texture coords

o Bein_2
g Bein_2
usemtl Mat
s 1
f -8/-24/-8 -7/-23/-7 -6/-22/-6 
f -8/-24/-8 -6/-22/-6 -5/-21/-5 
f -4/-20/-4 -3/-19/-3 -7/-18/-7 
f -4/-20/-4 -7/-18/-7 -8/-17/-8 
f -2/-16/-2 -1/-15/-1 -3/-14/-3 
f -2/-16/-2 -3/-14/-3 -4/-13/-4 
f -5/-12/-5 -6/-11/-6 -1/-10/-1 
f -5/-12/-5 -1/-10/-1 -2/-9/-2 
f -7/-8/-7 -3/-7/-3 -1/-6/-1 
f -7/-8/-7 -1/-6/-1 -6/-5/-6 
f -4/-4/-4 -8/-3/-8 -5/-2/-5 
f -4/-4/-4 -5/-2/-5 -2/-1/-2 
# 12 faces

#
# object Bein_3
#

v  3.591700 0.000000 -5.387500
v  3.591700 2.993100 -5.387500
v  3.292400 2.993100 -5.387500
v  3.292400 0.000000 -5.387500
v  3.591700 0.000000 -5.686800
v  3.591700 2.993100 -5.686800
v  3.292400 0.000000 -5.686800
v  3.292400 2.993100 -5.686800
# 8 vertices

vn 0.577400 -0.577400 0.577400
vn 0.577400 0.577400 0.577400
vn -0.577400 0.577400 0.577400
vn -0.577400 -0.577400 0.577400
vn 0.577400 -0.577400 -0.577400
vn 0.577400 0.577400 -0.577400
vn -0.577400 -0.577400 -0.577400
vn -0.577400 0.577400 -0.577400
# 8 vertex normals

vt 1.000000 -0.000000 0.947369
vt 1.000000 1.000000 0.947369
vt 0.916669 1.000000 0.947369
vt 0.916669 -0.000000 0.947369
vt 1.000000 -0.000000 1.000000
vt 1.000000 1.000000 1.000000
vt 0.947369 1.000000 1.000000
vt 0.947369 -0.000000 1.000000
vt 0.083331 -0.000000 1.000000
vt 0.083331 1.000000 1.000000
vt 0.000000 1.000000 1.000000
vt 0.000000 -0.000000 1.000000
vt 0.052631 -0.000000 0.916669
vt 0.052631 1.000000 0.916669
vt 0.000000 1.000000 0.916669
vt 0.000000 -0.000000 0.916669
vt 1.000000 0.947369 1.000000
vt 0.916669 1.000000 1.000000
vt 0.916669 0.947369 1.000000
vt 0.000000 1.000000 -0.000000
vt 0.000000 0.947369 -0.000000
vt 0.083331 0.947369 -0.000000
vt 0.083331 1.000000 -0.000000
# 23 texture coords

o Bein_3
g Bein_3
usemtl Mat
s 1
f -8/-23/-8 -7/-22/-7 -6/-21/-6 
f -8/-23/-8 -6/-21/-6 -5/-20/-5 
f -4/-19/-4 -3/-18/-3 -7/-17/-7 
f -4/-19/-4 -7/-17/-7 -8/-16/-8 
f -2/-15/-2 -1/-14/-1 -3/-13/-3 
f -2/-15/-2 -3/-13/-3 -4/-12/-4 
f -5/-11/-5 -6/-10/-6 -1/-9/-1 
f -5/-11/-5 -1/-9/-1 -2/-8/-2 
f -7/-7/-7 -3/-18/-3 -1/-6/-1 
f -7/-7/-7 -1/-6/-1 -6/-5/-6 
f -4/-4/-4 -8/-3/-8 -5/-2/-5 
f -4/-4/-4 -5/-2/-5 -2/-1/-2 
# 12 faces

